<svg id="acqualog" xmlns="http://www.w3.org/2000/svg" viewBox="0 0 277.8 55.7">
  <defs>
    <style>
      .cls-1 {
        fill: #048cde;
      }
    </style>
  </defs>
  <title>acqualog_logo</title>
  <g id="logo">
    <g id="icon">
      <g>
        <path class="cls-1" d="M438.7,328a20.9,20.9,0,0,0,.1,2.5v-5.2A24.4,24.4,0,0,0,438.7,328Z" transform="translate(-438.2 -289.3)"/>
        <path class="cls-1" d="M438.3,330.7v-.2a21.8,21.8,0,0,1-.1-2.5,24.4,24.4,0,0,1,.1-2.7h1v5.4Z" transform="translate(-438.2 -289.3)"/>
      </g>
      <path class="cls-1" d="M467.3,292.3v-3l-.6.2a39,39,0,0,0-14,7.6,38.7,38.7,0,0,0-13.8-7.5l-.6-.2v3h.3a36.8,36.8,0,0,1,12,6.5,1.7,1.7,0,0,0-.6.6,39.8,39.8,0,0,0-11.7,25.7v5.4a4.9,4.9,0,0,0,.1,1.2,14.2,14.2,0,0,0,3.5,8.2l.2.3a14.5,14.5,0,0,0,21.2,0l.3-.3a14.7,14.7,0,0,0,3.4-8.2c.1-.5.1-.9.2-1.4V328a39.9,39.9,0,0,0-11.7-28.4l-.6-.6a35.8,35.8,0,0,1,12.1-6.6ZM464.4,328a19.3,19.3,0,0,1-.1,2.4,3.1,3.1,0,0,1-.1,1,11.4,11.4,0,0,1-8.5,10.2,10.2,10.2,0,0,1-6,0,11.4,11.4,0,0,1-8.5-10.2,3.1,3.1,0,0,1-.1-1,19.3,19.3,0,0,1-.1-2.4,37.5,37.5,0,0,1,11.7-27.1A37.5,37.5,0,0,1,464.4,328Z" transform="translate(-438.2 -289.3)"/>
    </g>
    <g id="nome">
      <path class="cls-1" d="M498.5,328.8l-3.6,8.4h-3.6l13.8-31.3,13.4,31.3h-3.7l-3.5-8.4Zm6.5-15.1-5.1,12H510Z" transform="translate(-438.2 -289.3)"/>
      <path class="cls-1" d="M544.5,313.9a12.4,12.4,0,0,0-9.1-4c-6.6,0-12,5.8-12,12.4a12.4,12.4,0,0,0,12.1,12.4,12.7,12.7,0,0,0,9-4v4.1a14.9,14.9,0,0,1-8.9,3,15.5,15.5,0,1,1,0-31,14.1,14.1,0,0,1,8.9,3Z" transform="translate(-438.2 -289.3)"/>
      <path class="cls-1" d="M573.2,334.8a15.2,15.2,0,0,1-9,3,15.5,15.5,0,1,1,15.6-15.4,15.1,15.1,0,0,1-4.3,10.6l4.5,4.5h-4.3Zm0-4.2a11.8,11.8,0,0,0,3.3-8.3,12.3,12.3,0,1,0-12.3,12.4,11.5,11.5,0,0,0,6.7-2.3l-7.2-7.2h4.4Z" transform="translate(-438.2 -289.3)"/>
      <path class="cls-1" d="M587.6,325.2c0,2.2-.1,4.7,1.3,6.6a7.7,7.7,0,0,0,6,2.9,7.8,7.8,0,0,0,5.9-2.7c1.6-1.9,1.5-4.5,1.5-6.8V307.4h3.3v18.7c0,3.2-.3,5.8-2.6,8.2a11.1,11.1,0,0,1-15.8.4c-2.6-2.5-2.9-5.2-2.9-8.6V307.4h3.3Z" transform="translate(-438.2 -289.3)"/>
      <path class="cls-1" d="M616,328.8l-3.6,8.4h-3.7l13.8-31.3,13.4,31.3h-3.6l-3.6-8.4Zm6.4-15.1-5.1,12h10.1Z" transform="translate(-438.2 -289.3)"/>
      <path class="cls-1" d="M642.5,334.1h8.3v3.1H639.2V307.4h3.3Z" transform="translate(-438.2 -289.3)"/>
      <path class="cls-1" d="M683.7,322.3a15.6,15.6,0,1,1-15.6-15.5A15.6,15.6,0,0,1,683.7,322.3Zm-27.8,0a12.3,12.3,0,1,0,12.2-12.4A12.4,12.4,0,0,0,655.9,322.3Z" transform="translate(-438.2 -289.3)"/>
      <path class="cls-1" d="M716,322.2c.1,4.1-.4,7.4-3.1,10.6a15,15,0,0,1-11.1,5,15.5,15.5,0,1,1,12.9-24.5l-2.4,2.3c-2.5-3.6-5.9-5.7-10.3-5.7a12.4,12.4,0,0,0-12.2,12.5,12.3,12.3,0,0,0,3.5,8.5,12.9,12.9,0,0,0,8.5,3.8c5.2,0,10.6-3.8,10.6-9.4h-8.9v-3.1Z" transform="translate(-438.2 -289.3)"/>
    </g>
  </g>
</svg>